<mxfile host="app.diagrams.net" agent="Mozilla/5.0 (Windows NT 10.0; Win64; x64) AppleWebKit/537.36 (KHTML, like Gecko) Chrome/128.0.0.0 Safari/537.36" version="24.8.3">
  <diagram name="Page-1" id="mn54bUnRSG1RDE7VQwgp">
    <mxGraphModel dx="1034" dy="454" grid="1" gridSize="10" guides="1" tooltips="1" connect="1" arrows="1" fold="1" page="1" pageScale="1" pageWidth="850" pageHeight="1100" math="0" shadow="0">
      <root>
        <mxCell id="0" />
        <mxCell id="1" parent="0" />
        <mxCell id="VK1mOjLc0fZlexmd8dxk-1" value="val=&quot;a&quot;&lt;div&gt;next-reference-&amp;gt;xx04&lt;/div&gt;&lt;div&gt;&lt;br&gt;&lt;/div&gt;" style="rounded=0;whiteSpace=wrap;html=1;" vertex="1" parent="1">
          <mxGeometry x="110" y="160" width="120" height="60" as="geometry" />
        </mxCell>
        <mxCell id="VK1mOjLc0fZlexmd8dxk-13" style="edgeStyle=orthogonalEdgeStyle;rounded=0;orthogonalLoop=1;jettySize=auto;html=1;entryX=0;entryY=0.5;entryDx=0;entryDy=0;" edge="1" parent="1" source="VK1mOjLc0fZlexmd8dxk-2" target="VK1mOjLc0fZlexmd8dxk-12">
          <mxGeometry relative="1" as="geometry" />
        </mxCell>
        <mxCell id="VK1mOjLc0fZlexmd8dxk-2" value="val=&quot;a&quot;&lt;div&gt;next-reference-&amp;gt;xx05&lt;/div&gt;&lt;div&gt;&lt;br&gt;&lt;/div&gt;" style="rounded=0;whiteSpace=wrap;html=1;" vertex="1" parent="1">
          <mxGeometry x="570" y="160" width="110" height="60" as="geometry" />
        </mxCell>
        <mxCell id="VK1mOjLc0fZlexmd8dxk-10" value="" style="edgeStyle=orthogonalEdgeStyle;rounded=0;orthogonalLoop=1;jettySize=auto;html=1;" edge="1" parent="1" source="VK1mOjLc0fZlexmd8dxk-3" target="VK1mOjLc0fZlexmd8dxk-4">
          <mxGeometry relative="1" as="geometry" />
        </mxCell>
        <mxCell id="VK1mOjLc0fZlexmd8dxk-3" value="&lt;div&gt;val=&quot;b&quot;&lt;div&gt;next-reference-&amp;gt;xx07&lt;/div&gt;&lt;div&gt;&lt;br&gt;&lt;/div&gt;&lt;/div&gt;" style="rounded=0;whiteSpace=wrap;html=1;" vertex="1" parent="1">
          <mxGeometry x="260" y="160" width="120" height="60" as="geometry" />
        </mxCell>
        <mxCell id="VK1mOjLc0fZlexmd8dxk-11" value="" style="edgeStyle=orthogonalEdgeStyle;rounded=0;orthogonalLoop=1;jettySize=auto;html=1;" edge="1" parent="1" source="VK1mOjLc0fZlexmd8dxk-4" target="VK1mOjLc0fZlexmd8dxk-2">
          <mxGeometry relative="1" as="geometry" />
        </mxCell>
        <mxCell id="VK1mOjLc0fZlexmd8dxk-4" value="val=&quot;c&quot;&lt;div&gt;next-reference-&amp;gt;xx02&lt;/div&gt;&lt;div&gt;&lt;br&gt;&lt;/div&gt;" style="rounded=0;whiteSpace=wrap;html=1;" vertex="1" parent="1">
          <mxGeometry x="410" y="160" width="120" height="60" as="geometry" />
        </mxCell>
        <mxCell id="VK1mOjLc0fZlexmd8dxk-5" value="" style="endArrow=classic;html=1;rounded=0;" edge="1" parent="1" target="VK1mOjLc0fZlexmd8dxk-3">
          <mxGeometry width="50" height="50" relative="1" as="geometry">
            <mxPoint x="230" y="190" as="sourcePoint" />
            <mxPoint x="280" y="140" as="targetPoint" />
          </mxGeometry>
        </mxCell>
        <mxCell id="VK1mOjLc0fZlexmd8dxk-6" value="mem-address of the node-xx02" style="text;html=1;align=center;verticalAlign=middle;whiteSpace=wrap;rounded=0;" vertex="1" parent="1">
          <mxGeometry x="100" y="230" width="90" height="30" as="geometry" />
        </mxCell>
        <mxCell id="VK1mOjLc0fZlexmd8dxk-12" value="val=&quot;f&quot;&lt;div&gt;next-reference-&amp;gt;null&lt;/div&gt;&lt;div&gt;&lt;br&gt;&lt;/div&gt;" style="rounded=0;whiteSpace=wrap;html=1;" vertex="1" parent="1">
          <mxGeometry x="720" y="160" width="120" height="60" as="geometry" />
        </mxCell>
        <mxCell id="VK1mOjLc0fZlexmd8dxk-15" style="edgeStyle=orthogonalEdgeStyle;rounded=0;orthogonalLoop=1;jettySize=auto;html=1;entryX=0;entryY=0.5;entryDx=0;entryDy=0;" edge="1" source="VK1mOjLc0fZlexmd8dxk-16" target="VK1mOjLc0fZlexmd8dxk-23" parent="1">
          <mxGeometry relative="1" as="geometry" />
        </mxCell>
        <mxCell id="VK1mOjLc0fZlexmd8dxk-16" value="val=&quot;a&quot;&lt;div&gt;next-reference-&amp;gt;xx05&lt;/div&gt;&lt;div&gt;&lt;br&gt;&lt;/div&gt;" style="rounded=0;whiteSpace=wrap;html=1;" vertex="1" parent="1">
          <mxGeometry x="550" y="300" width="110" height="60" as="geometry" />
        </mxCell>
        <mxCell id="VK1mOjLc0fZlexmd8dxk-17" value="" style="edgeStyle=orthogonalEdgeStyle;rounded=0;orthogonalLoop=1;jettySize=auto;html=1;" edge="1" source="VK1mOjLc0fZlexmd8dxk-18" target="VK1mOjLc0fZlexmd8dxk-20" parent="1">
          <mxGeometry relative="1" as="geometry" />
        </mxCell>
        <mxCell id="VK1mOjLc0fZlexmd8dxk-18" value="&lt;div&gt;val=&quot;b&quot;&lt;div&gt;next-reference-&amp;gt;xx07&lt;/div&gt;&lt;div&gt;&lt;br&gt;&lt;/div&gt;&lt;/div&gt;" style="rounded=0;whiteSpace=wrap;html=1;" vertex="1" parent="1">
          <mxGeometry x="240" y="300" width="120" height="60" as="geometry" />
        </mxCell>
        <mxCell id="VK1mOjLc0fZlexmd8dxk-19" value="" style="edgeStyle=orthogonalEdgeStyle;rounded=0;orthogonalLoop=1;jettySize=auto;html=1;" edge="1" source="VK1mOjLc0fZlexmd8dxk-20" target="VK1mOjLc0fZlexmd8dxk-16" parent="1">
          <mxGeometry relative="1" as="geometry" />
        </mxCell>
        <mxCell id="VK1mOjLc0fZlexmd8dxk-20" value="val=&quot;c&quot;&lt;div&gt;next-reference-&amp;gt;xx02&lt;/div&gt;&lt;div&gt;&lt;br&gt;&lt;/div&gt;" style="rounded=0;whiteSpace=wrap;html=1;" vertex="1" parent="1">
          <mxGeometry x="390" y="300" width="120" height="60" as="geometry" />
        </mxCell>
        <mxCell id="VK1mOjLc0fZlexmd8dxk-23" value="val=&quot;f&quot;&lt;div&gt;next-reference-&amp;gt;null&lt;/div&gt;&lt;div&gt;&lt;br&gt;&lt;/div&gt;" style="rounded=0;whiteSpace=wrap;html=1;" vertex="1" parent="1">
          <mxGeometry x="700" y="300" width="120" height="60" as="geometry" />
        </mxCell>
        <mxCell id="VK1mOjLc0fZlexmd8dxk-24" value="head = mem-address of the node-xx04" style="text;html=1;align=center;verticalAlign=middle;whiteSpace=wrap;rounded=0;" vertex="1" parent="1">
          <mxGeometry x="250" y="370" width="90" height="30" as="geometry" />
        </mxCell>
      </root>
    </mxGraphModel>
  </diagram>
</mxfile>
